<svg xmlns="http://www.w3.org/2000/svg" viewBox="0 0 2500 811.1" style="enable-background:new 0 0 2500 811.1" xml:space="preserve"><path d="M1083.8 797.5h-204L1007.3 14h204l-127.5 783.5zM708.2 14 513.7 552.9l-23-116.1-68.6-352.3S413.8 14 325.3 14H3.8L0 27.3s98.3 20.5 213.4 89.6l177.2 680.7h212.5L927.7 14H708.2zm1604.5 783.5H2500L2336.7 14h-164c-75.7 0-94.2 58.4-94.2 58.4l-304.2 725.2H1987l42.5-116.4h259.3l23.9 116.3zm-224.5-277.1 107.2-293.2 60.3 293.2h-167.5zm-298-318 29.1-168.3S1729.5-.1 1635.8-.1c-101.2 0-341.6 44.2-341.6 259.4 0 202.4 282.2 204.9 282.2 311.3s-253.1 87.3-336.6 20.2l-30.3 175.9s91.1 44.2 230.3 44.2c139.2 0 349.2-72.1 349.2-268.3 0-203.7-284.7-222.7-284.7-311.3 0-88.4 198.6-77 285.9-28.9z" style="fill:#2566af"/><path d="M490.7 436.9 422.1 84.5S413.8 14 325.3 14H3.8L0 27.2s154.5 32 302.8 152C444.5 294 490.7 436.9 490.7 436.9z" style="fill:#e6a540"/></svg>